<svg width="190" height="264" viewBox="0 0 190 264" fill="none" xmlns="http://www.w3.org/2000/svg">
<path fill-rule="evenodd" clip-rule="evenodd" d="M8 264C6.91527 264 5.88096 263.754 4.9377 263.309C4.46999 263.089 4.02466 262.819 3.60668 262.506C3.16947 262.178 2.76218 261.803 2.39045 261.387L2.45721 261.204L2.29623 261.28C1.93061 260.857 1.60105 260.393 1.31322 259.896C1.03804 259.42 0.800995 258.913 0.607044 258.381C0.215889 257.308 0 256.131 0 254.897V244.655H3V254.897C3 255.674 3.13548 256.407 3.37822 257.074L4.17219 259.252L6.08686 260.156C6.67223 260.432 7.31651 260.586 8 260.586H17.2143V264H8ZM42.0714 264V260.586H23.6428V264H42.0714ZM66.9286 264V260.586H48.5V264H66.9286ZM91.7857 264V260.586H73.3571V264H91.7857ZM116.643 264V260.586H98.2143V264H116.643ZM141.5 264V260.586H123.071V264H141.5ZM166.357 264V260.586H147.929V264H166.357ZM190 217.345H187V237.828H190V217.345ZM190 190.034H187V210.517H190V190.034ZM190 162.724H187V183.207H190V162.724ZM190 135.414H187V155.897H190V135.414ZM190 108.103H187V128.586H190V108.103ZM190 80.7931H187V101.276H190V80.7931ZM190 53.4828H187V73.9655H190V53.4828ZM190 26.1724H187V46.6552H190V26.1724ZM147.929 0V3.41379H166.357V0H147.929ZM123.071 0V3.41379H141.5V0H123.071ZM98.2143 0V3.41379H116.643V0H98.2143ZM73.3571 0V3.41379H91.7857V0H73.3571ZM48.5 0V3.41379H66.9286V0H48.5ZM23.6429 0V3.41379H42.0714V0H23.6429ZM0 46.6552H3V26.1724H0V46.6552ZM0 73.9655H3V53.4828H0V73.9655ZM0 101.276H3V80.7931H0V101.276ZM0 128.586H3V108.103H0V128.586ZM0 155.897H3V135.414H0V155.897ZM0 183.207H3V162.724H0V183.207ZM0 210.517H3V190.034H0V210.517ZM0 237.828H3V217.345H0V237.828ZM0 19.3448V9.10345C0 7.8691 0.215889 6.69213 0.607044 5.61876C0.800995 5.08654 1.03804 4.57979 1.31322 4.10415C1.60105 3.60664 1.93061 3.14317 2.29622 2.72018L2.45722 2.79615L2.39046 2.61295C2.76218 2.1969 3.16947 1.82189 3.60668 1.49435C4.02467 1.18122 4.46999 0.911478 4.9377 0.690775C5.88096 0.245667 6.91527 0 8 0H17.2143V3.41379H8C7.31651 3.41379 6.67224 3.56796 6.08686 3.84418L4.1722 4.74768L3.37822 6.92643C3.13548 7.59255 3 8.32569 3 9.10345V19.3448H0ZM172.786 0H182C183.085 0 184.119 0.24567 185.062 0.690778C185.53 0.911481 185.975 1.18122 186.393 1.49435C186.831 1.82189 187.238 2.1969 187.61 2.61295L187.543 2.79614L187.704 2.72017C188.069 3.14317 188.399 3.60664 188.687 4.10415C188.962 4.57979 189.199 5.08654 189.393 5.61876C189.784 6.69213 190 7.8691 190 9.10345V19.3448H187V9.10345C187 8.32569 186.865 7.59254 186.622 6.92643L185.828 4.74767L183.913 3.84418C183.328 3.56796 182.683 3.41379 182 3.41379H172.786V0ZM190 244.655V254.897C190 256.131 189.784 257.308 189.393 258.381C189.199 258.913 188.962 259.42 188.687 259.896C188.399 260.393 188.069 260.857 187.704 261.28L187.543 261.204L187.61 261.387C187.238 261.803 186.831 262.178 186.393 262.506C185.975 262.819 185.53 263.089 185.062 263.309C184.119 263.754 183.085 264 182 264H172.786V260.586H182C182.683 260.586 183.328 260.432 183.913 260.156L185.828 259.252L186.622 257.074C186.865 256.407 187 255.674 187 254.897V244.655H190Z" fill="#D0D0D0"/>
<g filter="url(#filter0_d)">
<path fill-rule="evenodd" clip-rule="evenodd" d="M94 91C78.5418 91 66 103.542 66 119C66 134.458 78.5418 147 94 147C109.458 147 122 134.458 122 119C122 103.542 109.458 91 94 91ZM94 88C76.8849 88 63 101.885 63 119C63 136.115 76.8849 150 94 150C111.115 150 125 136.115 125 119C125 101.885 111.115 88 94 88Z" fill="#D0D0D0"/>
</g>
<g filter="url(#filter1_d)">
<path fill-rule="evenodd" clip-rule="evenodd" d="M58.1114 171.069C58.1659 171.283 58.2357 171.483 58.3208 171.669C58.3226 171.673 58.3243 171.676 58.326 171.68C58.4106 171.863 58.5101 172.031 58.6245 172.186C58.6278 172.19 58.6312 172.195 58.6346 172.2C58.6399 172.207 58.6453 172.214 58.6506 172.221C58.6946 172.278 58.7397 172.332 58.7862 172.383C58.9102 172.521 59.0433 172.639 59.1855 172.738C59.5375 172.983 59.9452 173.109 60.4086 173.117C60.4241 173.117 60.4397 173.117 60.4553 173.117C60.5809 173.117 60.702 173.109 60.8186 173.093C60.9591 173.074 61.0931 173.043 61.2207 173C61.5871 172.877 61.9004 172.659 62.1604 172.344L62.2307 173H63.5198V164H62.096V167.246C61.7593 166.865 61.3374 166.639 60.8303 166.568C60.7301 166.553 60.6266 166.545 60.5198 166.543C60.5023 166.543 60.4847 166.543 60.4671 166.543C59.9346 166.543 59.4776 166.688 59.096 166.978C58.9316 167.103 58.7812 167.255 58.6448 167.434C58.6354 167.446 58.6261 167.458 58.617 167.47C58.6156 167.472 58.6142 167.474 58.6128 167.476C58.535 167.581 58.4642 167.693 58.4004 167.81C58.1102 168.344 57.9651 169.002 57.9651 169.783C57.9651 169.825 57.9655 169.866 57.9662 169.906C57.9739 170.331 58.0221 170.718 58.1108 171.067C58.111 171.068 58.1112 171.068 58.1114 171.069ZM59.6227 171.178C59.6566 171.251 59.6943 171.319 59.7356 171.384C59.7366 171.386 59.7377 171.387 59.7387 171.389C59.7451 171.399 59.7515 171.408 59.7581 171.418C59.7635 171.426 59.7689 171.433 59.7744 171.441C59.9513 171.685 60.1783 171.843 60.4553 171.914C60.4765 171.919 60.498 171.924 60.5198 171.929C60.6139 171.948 60.7135 171.957 60.8186 171.957C61.0783 171.957 61.3068 171.905 61.5043 171.802C61.6394 171.731 61.7599 171.636 61.8659 171.517C61.9493 171.423 62.0236 171.315 62.089 171.191C62.0913 171.187 62.0936 171.182 62.096 171.178V168.471C62.0918 168.463 62.0877 168.455 62.0835 168.447C62.0038 168.298 61.9098 168.171 61.8015 168.067C61.6948 167.964 61.5743 167.884 61.4399 167.826C61.2612 167.748 61.058 167.709 60.8303 167.709C60.7209 167.709 60.6174 167.719 60.5198 167.74C60.502 167.744 60.4844 167.748 60.4671 167.752C60.1781 167.827 59.9437 167.996 59.7639 168.26C59.7597 168.266 59.7556 168.272 59.7515 168.278C59.7507 168.279 59.7498 168.281 59.749 168.282C59.7105 168.34 59.675 168.403 59.6426 168.471C59.4851 168.799 59.401 169.237 59.3901 169.783C59.3893 169.824 59.3889 169.865 59.3889 169.906C59.3889 170.139 59.405 170.354 59.4371 170.55C59.4757 170.786 59.5376 170.995 59.6227 171.178ZM53.9282 164.469H52.5981L49.3755 173H50.9165L51.6079 171.014H54.9126L55.6099 173H57.1567L53.9282 164.469ZM124.273 173H125.697V166.66H124.273V173ZM65.096 168.666C65.0177 169.005 64.9785 169.377 64.9785 169.783C64.9785 169.825 64.9789 169.866 64.9796 169.906C64.9865 170.284 65.0253 170.631 65.096 170.948C65.2032 171.43 65.3838 171.842 65.6379 172.186C65.6413 172.19 65.6446 172.195 65.648 172.2C65.6534 172.207 65.6587 172.214 65.6641 172.221C65.8252 172.43 66.0035 172.602 66.1989 172.738C66.3012 172.809 66.4081 172.87 66.5198 172.921C66.8054 173.052 67.1217 173.117 67.4688 173.117C67.5943 173.117 67.7154 173.109 67.8321 173.093C67.9725 173.074 68.1066 173.043 68.2342 173C68.6006 172.877 68.9138 172.659 69.1738 172.344L69.2442 173H70.5332V164H69.1094V167.246C68.7727 166.865 68.3509 166.639 67.8438 166.568C67.7436 166.553 67.6401 166.545 67.5332 166.543C67.5157 166.543 67.4982 166.543 67.4805 166.543C67.127 166.543 66.8068 166.607 66.5198 166.735C66.3745 166.799 66.2377 166.881 66.1094 166.978C65.945 167.103 65.7946 167.255 65.6582 167.434C65.6488 167.446 65.6396 167.458 65.6304 167.47C65.629 167.472 65.6276 167.474 65.6263 167.476C65.3783 167.812 65.2015 168.208 65.096 168.666ZM66.7521 171.389C66.7585 171.399 66.765 171.408 66.7715 171.418C66.9507 171.676 67.1831 171.841 67.4688 171.914C67.49 171.919 67.5114 171.924 67.5332 171.929C67.6274 171.948 67.727 171.957 67.8321 171.957C68.0917 171.957 68.3203 171.905 68.5177 171.802C68.6528 171.731 68.7733 171.636 68.8793 171.517C68.9657 171.42 69.0424 171.307 69.1094 171.178V168.471C69.0271 168.311 68.9289 168.176 68.8149 168.067C68.7082 167.964 68.5877 167.884 68.4534 167.826C68.2747 167.748 68.0715 167.709 67.8438 167.709C67.7343 167.709 67.6308 167.719 67.5332 167.74C67.5154 167.744 67.4979 167.748 67.4805 167.752C67.1916 167.827 66.9572 167.996 66.7774 168.26C66.7732 168.266 66.769 168.272 66.7649 168.278C66.7641 168.279 66.7633 168.281 66.7625 168.282C66.7239 168.34 66.6884 168.403 66.6561 168.471C66.602 168.584 66.5566 168.709 66.5198 168.848C66.4494 169.113 66.4107 169.424 66.4036 169.783C66.4028 169.824 66.4024 169.865 66.4024 169.906C66.4024 170.27 66.4415 170.589 66.5198 170.863C66.5519 170.975 66.5907 171.08 66.6361 171.178C66.67 171.251 66.7077 171.319 66.7491 171.384C66.7501 171.386 66.7511 171.387 66.7521 171.389ZM75.6245 173H77.107V166.947L80.9097 173H82.3921V164.469H80.9214V170.545L77.107 164.469H75.6245V173ZM84.8128 172.238C84.8222 172.248 84.8316 172.258 84.8411 172.268C84.9041 172.331 84.9692 172.391 85.0365 172.447C85.0386 172.449 85.0408 172.451 85.0429 172.453C85.1536 172.545 85.27 172.627 85.3921 172.7C85.4076 172.709 85.4231 172.719 85.4388 172.727C85.8537 172.964 86.3333 173.093 86.8776 173.114C86.9306 173.116 86.9842 173.117 87.0384 173.117C87.0659 173.117 87.0932 173.117 87.1204 173.116C87.6151 173.106 88.0623 173.003 88.4622 172.807C88.612 172.732 88.7512 172.648 88.8797 172.553C88.8846 172.549 88.8895 172.546 88.8944 172.542C89.0166 172.45 89.1291 172.349 89.2318 172.238C89.3228 172.14 89.4061 172.035 89.4817 171.922L88.7142 171.189C88.6762 171.238 88.6372 171.285 88.5972 171.329C88.5883 171.339 88.5795 171.349 88.5705 171.358C88.5107 171.422 88.4487 171.481 88.3844 171.535C88.3171 171.592 88.2473 171.643 88.1751 171.689C88.1085 171.731 88.0398 171.768 87.969 171.802C87.9677 171.802 87.9664 171.803 87.9652 171.803C87.7107 171.921 87.4291 171.98 87.1204 171.98C87.0928 171.98 87.0654 171.98 87.0384 171.979C86.6099 171.962 86.2505 171.81 85.9603 171.523C85.9006 171.464 85.846 171.4 85.7964 171.332C85.7945 171.329 85.7927 171.327 85.7909 171.324C85.6231 171.092 85.5136 170.81 85.4622 170.48C85.4522 170.416 85.4444 170.349 85.4388 170.281H89.5808L89.5813 169.707C89.5813 169.545 89.5752 169.389 89.563 169.238C89.5601 169.203 89.5569 169.168 89.5533 169.133C89.5502 169.103 89.5469 169.073 89.5433 169.043C89.4591 168.35 89.2355 167.792 88.8724 167.369C88.8709 167.367 88.8694 167.366 88.8679 167.364C88.8437 167.336 88.819 167.308 88.7937 167.281C88.7714 167.258 88.7487 167.235 88.7256 167.212C88.7232 167.21 88.7208 167.207 88.7184 167.205C88.6949 167.182 88.671 167.16 88.6467 167.139C88.5312 167.036 88.4063 166.947 88.272 166.871C88.2402 166.853 88.2079 166.836 88.1751 166.82C87.9052 166.684 87.5997 166.599 87.2586 166.563C87.1352 166.549 87.0071 166.543 86.8743 166.543C86.8724 166.543 86.8704 166.543 86.8685 166.543C86.3541 166.544 85.8853 166.669 85.4622 166.92C85.4406 166.932 85.4191 166.946 85.3978 166.959C85.3959 166.96 85.394 166.961 85.3921 166.963C85.2475 167.054 85.1134 167.157 84.9899 167.273C84.9874 167.275 84.985 167.277 84.9825 167.279C84.9819 167.28 84.9812 167.281 84.9806 167.281C84.7334 167.514 84.5287 167.795 84.3665 168.125C84.2272 168.41 84.128 168.718 84.0688 169.049C84.0251 169.293 84.0032 169.549 84.0032 169.818V169.994C84.0032 170.133 84.0092 170.267 84.0212 170.398C84.0897 171.142 84.3535 171.756 84.8128 172.238ZM88.1751 169.238V169.133C88.1495 168.743 88.0599 168.431 87.9061 168.198C87.9052 168.197 87.9042 168.195 87.9032 168.194C87.8699 168.144 87.8336 168.097 87.7942 168.055C87.7426 167.998 87.6863 167.947 87.6254 167.903C87.592 167.879 87.5572 167.857 87.521 167.837C87.3402 167.737 87.1246 167.686 86.8743 167.686C86.8724 167.686 86.8704 167.686 86.8685 167.686C86.5387 167.686 86.2619 167.783 86.0379 167.978C85.9965 168.014 85.957 168.053 85.9192 168.096C85.7737 168.263 85.6603 168.47 85.5788 168.717C85.5784 168.718 85.5779 168.72 85.5775 168.721C85.536 168.848 85.5029 168.985 85.4782 169.133C85.4724 169.167 85.4671 169.203 85.4622 169.238H88.1751ZM93.3018 173L94.3266 169.66L94.6378 168.646L95.9971 173H97.169L98.8975 166.66H97.5088L96.501 171.037L95.1827 166.66H94.1104L92.8096 170.99L91.7842 166.66H90.3956L92.1299 173H93.3018ZM107.979 164.973C107.524 164.71 107.016 164.55 106.456 164.493C106.3 164.477 106.139 164.469 105.975 164.469H103.456V173H105.911C106.098 173 106.279 172.99 106.456 172.971C107.006 172.91 107.506 172.753 107.956 172.502C108.148 172.395 108.326 172.274 108.489 172.138C108.561 172.078 108.63 172.016 108.697 171.95C108.697 171.95 108.697 171.95 108.697 171.95C108.948 171.702 109.161 171.413 109.333 171.084C109.334 171.082 109.335 171.08 109.336 171.078C109.439 170.883 109.525 170.677 109.595 170.462C109.644 170.311 109.685 170.155 109.718 169.994C109.73 169.936 109.741 169.878 109.751 169.818C109.793 169.559 109.816 169.288 109.819 169.005C109.819 169.001 109.819 168.996 109.819 168.992C109.819 168.979 109.819 168.965 109.819 168.951V168.523C109.819 168.521 109.819 168.52 109.819 168.518C109.819 168.358 109.812 168.202 109.799 168.05C109.776 167.783 109.734 167.526 109.671 167.281C109.666 167.259 109.66 167.237 109.654 167.215C109.653 167.212 109.652 167.209 109.652 167.206C109.574 166.923 109.47 166.655 109.338 166.402C109.293 166.316 109.246 166.232 109.196 166.151C109.062 165.935 108.91 165.739 108.739 165.562C108.517 165.333 108.264 165.136 107.979 164.973ZM108.324 168.236C108.303 167.781 108.227 167.384 108.098 167.046C108.052 166.925 107.998 166.811 107.938 166.704C107.875 166.594 107.805 166.491 107.727 166.396C107.618 166.264 107.496 166.15 107.36 166.053C107.359 166.052 107.358 166.052 107.357 166.051C107.103 165.871 106.803 165.754 106.456 165.7C106.304 165.676 106.144 165.664 105.975 165.664H104.938V171.816H105.905C105.907 171.816 105.909 171.816 105.911 171.816C106.104 171.816 106.285 171.801 106.456 171.771C106.797 171.71 107.093 171.59 107.345 171.41C107.346 171.409 107.347 171.408 107.348 171.408C107.474 171.317 107.589 171.211 107.692 171.09C107.784 170.982 107.866 170.865 107.938 170.737C107.992 170.641 108.041 170.539 108.084 170.432C108.085 170.429 108.085 170.427 108.086 170.425C108.112 170.36 108.136 170.292 108.158 170.222C108.181 170.148 108.202 170.072 108.22 169.994C108.234 169.937 108.246 169.878 108.257 169.818C108.304 169.566 108.328 169.29 108.331 168.992V168.518C108.331 168.422 108.328 168.328 108.324 168.236ZM111.331 168.596C111.295 168.711 111.264 168.83 111.239 168.951C111.236 168.965 111.233 168.978 111.231 168.992C111.229 169 111.228 169.009 111.226 169.017C111.224 169.028 111.222 169.038 111.22 169.049C111.176 169.293 111.155 169.549 111.155 169.818V169.994C111.155 170.133 111.161 170.267 111.173 170.398C111.175 170.429 111.179 170.459 111.182 170.49C111.263 171.193 111.524 171.776 111.964 172.238C111.974 172.248 111.983 172.258 111.993 172.268C112.015 172.291 112.039 172.313 112.062 172.335C112.103 172.374 112.145 172.411 112.188 172.447C112.19 172.449 112.192 172.451 112.194 172.453C112.319 172.556 112.451 172.648 112.59 172.727C113.005 172.964 113.485 173.093 114.029 173.114C114.082 173.116 114.136 173.117 114.19 173.117C114.217 173.117 114.245 173.117 114.272 173.116C114.766 173.106 115.214 173.003 115.614 172.807C115.763 172.732 115.903 172.648 116.031 172.553C116.099 172.503 116.164 172.45 116.226 172.394C116.281 172.344 116.333 172.292 116.383 172.238C116.474 172.14 116.557 172.035 116.633 171.922L115.866 171.189C115.852 171.207 115.838 171.225 115.823 171.242C115.799 171.272 115.774 171.301 115.749 171.329C115.681 171.404 115.61 171.473 115.536 171.535C115.468 171.592 115.399 171.643 115.327 171.689C115.26 171.731 115.191 171.768 115.12 171.802C115.119 171.802 115.118 171.803 115.117 171.803C114.862 171.921 114.581 171.98 114.272 171.98C114.244 171.98 114.217 171.98 114.19 171.979C113.761 171.962 113.402 171.81 113.112 171.523C113.052 171.464 112.997 171.4 112.948 171.332C112.946 171.329 112.944 171.327 112.942 171.324C112.804 171.132 112.705 170.908 112.646 170.65C112.633 170.595 112.623 170.538 112.614 170.48C112.604 170.416 112.596 170.349 112.59 170.281H116.732L116.733 169.707C116.733 169.545 116.727 169.389 116.714 169.238C116.712 169.203 116.708 169.168 116.705 169.133C116.702 169.103 116.698 169.073 116.695 169.043C116.618 168.413 116.426 167.894 116.119 167.487C116.088 167.447 116.057 167.407 116.024 167.369C115.998 167.339 115.972 167.31 115.945 167.281C115.923 167.258 115.9 167.235 115.877 167.212C115.875 167.21 115.872 167.207 115.87 167.205C115.867 167.203 115.865 167.2 115.862 167.198C115.729 167.07 115.583 166.962 115.423 166.871C115.392 166.853 115.359 166.836 115.327 166.82C114.998 166.655 114.617 166.564 114.183 166.546C114.131 166.544 114.079 166.543 114.026 166.543C114.024 166.543 114.022 166.543 114.02 166.543C113.524 166.544 113.07 166.661 112.659 166.893C112.644 166.902 112.629 166.911 112.614 166.92C112.592 166.932 112.571 166.946 112.549 166.959C112.402 167.051 112.266 167.156 112.141 167.273C112.139 167.275 112.136 167.277 112.134 167.279C112.133 167.28 112.133 167.281 112.132 167.281C111.885 167.514 111.68 167.795 111.518 168.125C111.455 168.253 111.401 168.386 111.354 168.523C111.346 168.548 111.338 168.572 111.331 168.596ZM115.327 169.238V169.133C115.301 168.743 115.211 168.431 115.058 168.198C115.057 168.197 115.056 168.195 115.055 168.194C115.021 168.144 114.985 168.097 114.946 168.055C114.866 167.966 114.775 167.894 114.672 167.837C114.657 167.829 114.641 167.82 114.625 167.812C114.454 167.729 114.255 167.686 114.026 167.686C114.024 167.686 114.022 167.686 114.02 167.686C113.69 167.686 113.413 167.783 113.189 167.978C113.148 168.014 113.108 168.053 113.071 168.096C112.972 168.209 112.888 168.341 112.819 168.491C112.814 168.501 112.809 168.512 112.804 168.523C112.777 168.585 112.752 168.649 112.73 168.717C112.73 168.718 112.729 168.72 112.729 168.721C112.705 168.794 112.684 168.871 112.665 168.951C112.652 169.01 112.64 169.07 112.63 169.133C112.624 169.167 112.618 169.203 112.614 169.238H115.327ZM120.852 173L123.049 166.66H121.578L120.236 171.195L118.877 166.66H117.4L119.615 173H120.852ZM124.432 164.43C124.417 164.442 124.404 164.455 124.39 164.469C124.343 164.519 124.304 164.573 124.273 164.632C124.215 164.743 124.185 164.87 124.185 165.014C124.185 165.154 124.215 165.28 124.273 165.39C124.304 165.449 124.343 165.503 124.39 165.553C124.404 165.566 124.418 165.579 124.432 165.591C124.57 165.706 124.755 165.764 124.988 165.764C125.221 165.764 125.407 165.706 125.544 165.591C125.55 165.586 125.556 165.581 125.561 165.576C125.57 165.569 125.578 165.561 125.586 165.553C125.63 165.508 125.667 165.459 125.697 165.407C125.764 165.292 125.797 165.161 125.797 165.014C125.797 164.863 125.764 164.731 125.697 164.615C125.667 164.563 125.63 164.514 125.586 164.469C125.578 164.461 125.57 164.453 125.561 164.445C125.55 164.435 125.539 164.425 125.528 164.416C125.392 164.307 125.212 164.252 124.988 164.252C124.764 164.252 124.584 164.307 124.449 164.416C124.443 164.42 124.437 164.425 124.432 164.43ZM127.996 167.42C127.61 167.854 127.369 168.398 127.273 169.051C127.243 169.256 127.228 169.472 127.226 169.699C127.226 169.702 127.226 169.704 127.226 169.707C127.226 169.715 127.226 169.723 127.226 169.73V169.877C127.226 169.897 127.226 169.916 127.226 169.936C127.229 170.163 127.244 170.379 127.273 170.584C127.368 171.251 127.604 171.799 127.981 172.228C127.985 172.233 127.988 172.237 127.992 172.241C127.997 172.246 128.001 172.251 128.005 172.256C128.208 172.48 128.439 172.66 128.697 172.797C129.097 173.008 129.564 173.115 130.097 173.117C130.103 173.117 130.109 173.117 130.115 173.117C130.558 173.117 130.972 173.023 131.357 172.836C131.366 172.832 131.374 172.827 131.382 172.823C131.386 172.822 131.389 172.82 131.392 172.818C131.533 172.747 131.664 172.667 131.784 172.578C131.921 172.476 132.044 172.363 132.153 172.238C132.217 172.166 132.275 172.09 132.33 172.01C132.347 171.985 132.363 171.959 132.379 171.934C132.41 171.883 132.439 171.831 132.466 171.779C132.598 171.523 132.675 171.254 132.695 170.971C132.697 170.948 132.698 170.925 132.699 170.902H131.357C131.35 171.041 131.32 171.17 131.267 171.289C131.266 171.291 131.265 171.293 131.264 171.296C131.202 171.434 131.107 171.559 130.982 171.67C130.979 171.673 130.975 171.676 130.972 171.679C130.936 171.71 130.899 171.738 130.86 171.765C130.747 171.841 130.621 171.898 130.484 171.934C130.369 171.964 130.246 171.979 130.115 171.98C130.109 171.98 130.103 171.98 130.097 171.98C129.954 171.98 129.822 171.965 129.699 171.934C129.419 171.862 129.193 171.71 129.019 171.477C128.999 171.449 128.98 171.42 128.962 171.391C128.857 171.22 128.779 171.012 128.727 170.767C128.716 170.715 128.706 170.661 128.697 170.606C128.666 170.405 128.65 170.181 128.65 169.936V169.707C128.651 169.475 128.667 169.263 128.697 169.071C128.698 169.063 128.7 169.056 128.701 169.048C128.752 168.738 128.841 168.482 128.968 168.28C128.969 168.279 128.97 168.278 128.971 168.276C128.99 168.246 129.01 168.217 129.031 168.189C129.117 168.074 129.215 167.978 129.326 167.902C129.538 167.758 129.795 167.686 130.097 167.686C130.101 167.686 130.105 167.686 130.109 167.686C130.386 167.688 130.625 167.76 130.825 167.902C130.88 167.942 130.933 167.987 130.982 168.037C130.984 168.039 130.985 168.04 130.987 168.042C131.018 168.074 131.048 168.107 131.075 168.141C131.077 168.144 131.08 168.146 131.082 168.149C131.252 168.365 131.344 168.626 131.357 168.934H132.699C132.698 168.92 132.698 168.907 132.697 168.894C132.697 168.888 132.697 168.882 132.696 168.876C132.678 168.515 132.601 168.191 132.465 167.902C132.464 167.899 132.462 167.896 132.461 167.893C132.353 167.667 132.209 167.463 132.028 167.281C132.002 167.255 131.976 167.23 131.949 167.205C131.928 167.186 131.907 167.167 131.886 167.148C131.883 167.146 131.881 167.144 131.878 167.141C131.739 167.021 131.588 166.919 131.425 166.835C131.403 166.824 131.38 166.812 131.357 166.801C130.996 166.629 130.58 166.543 130.109 166.543C130.105 166.543 130.101 166.543 130.097 166.543C129.563 166.545 129.096 166.651 128.697 166.863C128.436 167.002 128.204 167.186 128.001 167.414C128.001 167.415 128 167.415 128 167.416C127.999 167.417 127.997 167.418 127.996 167.42ZM134.255 167.902C134.248 167.914 134.241 167.926 134.234 167.938C134.199 167.998 134.166 168.061 134.134 168.125C134.027 168.345 133.943 168.578 133.883 168.825C133.878 168.848 133.872 168.872 133.867 168.895C133.856 168.946 133.846 168.997 133.836 169.049C133.793 169.293 133.771 169.549 133.771 169.818V169.994C133.771 170.133 133.777 170.267 133.789 170.398C133.807 170.59 133.837 170.774 133.881 170.949C133.888 170.977 133.896 171.005 133.903 171.033C133.982 171.315 134.096 171.574 134.245 171.809C134.272 171.852 134.3 171.893 134.329 171.934C134.405 172.04 134.489 172.142 134.58 172.238C134.59 172.248 134.599 172.258 134.609 172.268C134.672 172.331 134.737 172.391 134.804 172.447C134.806 172.449 134.808 172.451 134.811 172.453C134.935 172.556 135.067 172.648 135.206 172.727C135.239 172.746 135.273 172.764 135.306 172.782C135.698 172.984 136.144 173.095 136.645 173.114C136.698 173.116 136.752 173.117 136.806 173.117C136.834 173.117 136.861 173.117 136.888 173.116C137.383 173.106 137.83 173.003 138.23 172.807C138.38 172.732 138.519 172.648 138.647 172.553C138.775 172.458 138.893 172.353 138.999 172.238C139.09 172.14 139.174 172.035 139.249 171.922L138.482 171.189C138.444 171.238 138.405 171.285 138.365 171.329C138.297 171.404 138.226 171.473 138.152 171.535C138.085 171.592 138.015 171.643 137.943 171.689C137.876 171.731 137.807 171.768 137.737 171.802C137.735 171.802 137.734 171.803 137.733 171.803C137.478 171.921 137.197 171.98 136.888 171.98C136.86 171.98 136.833 171.98 136.806 171.979C136.406 171.963 136.067 171.83 135.787 171.579C135.767 171.561 135.747 171.543 135.728 171.523C135.705 171.5 135.683 171.477 135.661 171.453C135.627 171.414 135.595 171.374 135.564 171.332C135.562 171.329 135.56 171.327 135.559 171.324C135.489 171.227 135.429 171.122 135.379 171.009C135.31 170.849 135.26 170.673 135.23 170.48C135.22 170.416 135.212 170.349 135.206 170.281H139.348L139.349 169.707C139.349 169.545 139.343 169.389 139.331 169.238C139.328 169.203 139.325 169.168 139.321 169.133C139.318 169.103 139.315 169.073 139.311 169.043C139.227 168.35 139.003 167.792 138.64 167.369C138.614 167.339 138.588 167.31 138.561 167.281C138.539 167.258 138.516 167.235 138.493 167.212C138.491 167.21 138.489 167.207 138.486 167.205C138.351 167.075 138.202 166.963 138.04 166.871C138.008 166.853 137.976 166.836 137.943 166.82C137.575 166.635 137.142 166.543 136.642 166.543C136.64 166.543 136.638 166.543 136.636 166.543C136.147 166.544 135.699 166.657 135.293 166.883C135.272 166.895 135.251 166.907 135.23 166.92C135.208 166.932 135.187 166.946 135.165 166.959C135.019 167.051 134.883 167.156 134.758 167.273C134.755 167.275 134.753 167.277 134.75 167.279C134.75 167.28 134.749 167.281 134.748 167.281C134.559 167.46 134.394 167.667 134.255 167.902ZM135.346 168.717C135.346 168.718 135.346 168.72 135.345 168.721C135.332 168.762 135.319 168.805 135.307 168.848C135.283 168.938 135.262 169.033 135.246 169.133C135.24 169.167 135.235 169.203 135.23 169.238H137.943V169.133C137.917 168.743 137.828 168.431 137.674 168.198C137.673 168.197 137.672 168.195 137.671 168.194C137.638 168.144 137.601 168.097 137.562 168.055C137.482 167.966 137.391 167.894 137.289 167.837C137.108 167.737 136.892 167.686 136.642 167.686C136.64 167.686 136.638 167.686 136.636 167.686C136.312 167.686 136.039 167.78 135.817 167.968C135.813 167.971 135.809 167.974 135.806 167.978C135.764 168.014 135.725 168.053 135.687 168.096C135.67 168.115 135.653 168.136 135.637 168.156C135.515 168.312 135.418 168.499 135.346 168.717ZM54.4966 169.818H52.0239L53.2603 166.279L54.4966 169.818Z" fill="#D0D0D0"/>
</g>
<path fill-rule="evenodd" clip-rule="evenodd" d="M94 103.5C94.8284 103.5 95.5 104.172 95.5 105V117.5H108C108.828 117.5 109.5 118.172 109.5 119C109.5 119.828 108.828 120.5 108 120.5H95.5V133C95.5 133.828 94.8284 134.5 94 134.5C93.1716 134.5 92.5 133.828 92.5 133V120.5H80C79.1716 120.5 78.5 119.828 78.5 119C78.5 118.172 79.1716 117.5 80 117.5H92.5V105C92.5 104.172 93.1716 103.5 94 103.5Z" fill="#D0D0D0"/>
<defs>
<filter id="filter0_d" x="56" y="82" width="76" height="76" filterUnits="userSpaceOnUse" color-interpolation-filters="sRGB">
<feFlood flood-opacity="0" result="BackgroundImageFix"/>
<feColorMatrix in="SourceAlpha" type="matrix" values="0 0 0 0 0 0 0 0 0 0 0 0 0 0 0 0 0 0 127 0"/>
<feOffset dy="1"/>
<feGaussianBlur stdDeviation="3.5"/>
<feColorMatrix type="matrix" values="0 0 0 0 0 0 0 0 0 0 0 0 0 0 0 0 0 0 0.1 0"/>
<feBlend mode="normal" in2="BackgroundImageFix" result="effect1_dropShadow"/>
<feBlend mode="normal" in="SourceGraphic" in2="effect1_dropShadow" result="shape"/>
</filter>
<filter id="filter1_d" x="42.3755" y="158" width="103.974" height="23.1172" filterUnits="userSpaceOnUse" color-interpolation-filters="sRGB">
<feFlood flood-opacity="0" result="BackgroundImageFix"/>
<feColorMatrix in="SourceAlpha" type="matrix" values="0 0 0 0 0 0 0 0 0 0 0 0 0 0 0 0 0 0 127 0"/>
<feOffset dy="1"/>
<feGaussianBlur stdDeviation="3.5"/>
<feColorMatrix type="matrix" values="0 0 0 0 0 0 0 0 0 0 0 0 0 0 0 0 0 0 0.1 0"/>
<feBlend mode="normal" in2="BackgroundImageFix" result="effect1_dropShadow"/>
<feBlend mode="normal" in="SourceGraphic" in2="effect1_dropShadow" result="shape"/>
</filter>
</defs>
</svg>
