<svg width="24" height="24" viewBox="0 0 24 24" fill="none" xmlns="http://www.w3.org/2000/svg">
<path fill-rule="evenodd" clip-rule="evenodd" d="M21 3H3V21H21V3ZM6.84003 15.02V9.35498H6.87503V8.74998H7.46503V8.72998H10V8.74998H10.625V11.265H9.34003V10.015H8.12503V13.73H9.34003V12.48H10.625V15H10V15.02H6.84003ZM6.25003 15.02H4.96503V13.73H6.25003V15.02ZM11.215 15.02H14.375V15H15V11.23H12.5V10.015H15V8.72998H11.84V8.74998H11.25V9.35498H11.215V12.515H13.715V13.73H11.215V15.02ZM15.59 15.02V8.72998H16.875V13.73H17.465L18.09 13.105V8.72998H19.375V13.765L18.09 15.02H15.59Z" fill="white"/>
</svg>
