<svg width="24" height="24" viewBox="0 0 24 24" fill="none" xmlns="http://www.w3.org/2000/svg">
<path d="M7.95781 11.804V10.587H9.17196V11.804H7.95781Z" fill="white"/>
<path d="M12.3298 10.587V11.804H13.5439V10.587H12.3298Z" fill="white"/>
<path d="M16.7017 11.804V10.587H17.9159V11.804H16.7017Z" fill="white"/>
<path fill-rule="evenodd" clip-rule="evenodd" d="M3 21V3H21V21H3ZM6.6737 15.6H7.95781V13.091H9.17196V15.6H10.4561V13.056H9.83151V12.465H10.4561V9.3H6.6737V15.6ZM4.8 15.6H6.08411V14.3079H4.8V15.6ZM12.3298 15.6H11.0457V9.3H14.828V13.076H14.2035V13.091H12.3298V15.6ZM15.4176 15.6H16.7017V13.091H18.5754V13.076H19.2V9.3H15.4176V15.6Z" fill="white"/>
</svg>
