<svg width="84" height="80" viewBox="0 0 84 80" fill="none" xmlns="http://www.w3.org/2000/svg">
<path fill-rule="evenodd" clip-rule="evenodd" d="M70.2625 21.919L9.61107 56.5761C7.65709 57.6926 6.98761 60.1654 8.11574 62.0993C9.24387 64.0332 11.7424 64.6958 13.6964 63.5793L74.3478 28.9222C76.3018 27.8057 76.9712 25.3329 75.8431 23.399C74.715 21.4651 72.2164 20.8025 70.2625 21.919ZM8.73565 55.0754C5.94425 56.6704 4.98784 60.2031 6.59946 62.9658C8.21107 65.7285 11.7804 66.675 14.5718 65.08L75.2232 30.4229C78.0146 28.8279 78.971 25.2952 77.3594 22.5325C75.7478 19.7698 72.1784 18.8233 69.387 20.4183L8.73565 55.0754Z" fill="black"/>
<path fill-rule="evenodd" clip-rule="evenodd" d="M80.918 20.5462C83.6577 25.2427 82.0318 31.2483 77.2864 33.9598C74.4144 35.6009 71.058 35.6594 68.2482 34.4086L66.4465 35.4381C69.9449 37.4521 74.4056 37.6069 78.1619 35.4605C83.7447 32.2704 85.6575 25.2051 82.4343 19.6797C79.211 14.1543 72.0723 12.2612 66.4895 15.4513C62.7626 17.5809 60.6713 21.4374 60.6515 25.4099L62.4639 24.3743C62.8018 21.3781 64.5246 18.575 67.3649 16.952C72.1103 14.2404 78.1782 15.8496 80.918 20.5462Z" fill="black"/>
<path d="M21.5469 61.0943C21.2364 64.1281 19.5071 66.9758 16.6351 68.6169C11.8897 71.3284 5.82178 69.7193 3.08203 65.0227C0.342285 60.3261 1.96817 54.3206 6.71356 51.609C9.55391 49.986 12.8681 49.9109 15.6588 51.1194L17.4711 50.0838C13.9852 48.1144 9.565 47.9787 5.83813 50.1083C0.255326 53.2984 -1.65749 60.3637 1.56575 65.8891C4.78898 71.4145 11.9277 73.3077 17.5105 70.1176C21.2668 67.9712 23.3617 64.0704 23.3486 60.0648L21.5469 61.0943Z" fill="black"/>
<path d="M12.6646 59.5C12.9869 60.0526 12.7956 60.7591 12.2374 61.0781C11.6791 61.3971 10.9652 61.2078 10.6429 60.6553C10.3206 60.1027 10.5118 59.3962 11.0701 59.0772C11.6284 58.7582 12.3423 58.9475 12.6646 59.5Z" fill="black"/>
<path d="M73.316 24.843C73.6383 25.3955 73.447 26.1021 72.8887 26.4211C72.3305 26.7401 71.6166 26.5508 71.2943 25.9982C70.9719 25.4457 71.1632 24.7392 71.7215 24.4202C72.2798 24.1011 72.9937 24.2905 73.316 24.843Z" fill="black"/>
<path fill-rule="evenodd" clip-rule="evenodd" d="M33.9566 8.08664C33.9566 6.33209 35.3937 4.90974 37.1665 4.90974H46.5043C48.2771 4.90974 49.7142 6.33209 49.7142 8.08664V33.213H47.9634V8.08664C47.9634 7.28912 47.3102 6.6426 46.5043 6.6426H37.1665C36.3606 6.6426 35.7074 7.28912 35.7074 8.08664V41.2996H33.9566V8.08664ZM47.9634 78.2671V44.4765H49.7142V80H47.088V78.2671H47.9634ZM35.7074 78.2671V52.5632H33.9566V80H36.5828V78.2671H35.7074ZM38.9173 80H37.7501V78.2671H38.9173V80ZM41.2518 80H40.0845V78.2671H41.2518V80ZM43.5863 80H42.419V78.2671H43.5863V80ZM45.9207 80H44.7535V78.2671H45.9207V80Z" fill="black"/>
<path d="M36.1638 2.31047C36.1638 1.03443 37.209 0 38.4983 0H45.5017C46.791 0 47.8362 1.03443 47.8362 2.31047V6.93141H36.1638V2.31047Z" fill="black"/>
<path d="M44.1699 42.7437C44.1699 44.0197 43.1247 45.0542 41.8354 45.0542C40.5461 45.0542 39.5009 44.0197 39.5009 42.7437C39.5009 41.4676 40.5461 40.4332 41.8354 40.4332C43.1247 40.4332 44.1699 41.4676 44.1699 42.7437Z" fill="black"/>
</svg>
