<svg width="56" height="56" viewBox="0 0 56 56" fill="none" xmlns="http://www.w3.org/2000/svg">
<path fill-rule="evenodd" clip-rule="evenodd" d="M11 7.09091C11 5.93613 12.1892 5 13.6562 5H16.3125C17.7795 5 18.9688 5.93613 18.9688 7.09091V48.9091C18.9688 50.0639 17.7795 51 16.3125 51H13.6562C12.1892 51 11 50.0639 11 48.9091V7.09091ZM37.0312 7.09091C37.0312 5.93613 38.2205 5 39.6875 5H42.3438C43.8108 5 45 5.93613 45 7.09091V48.9091C45 50.0639 43.8108 51 42.3438 51H39.6875C38.2205 51 37.0312 50.0639 37.0312 48.9091V7.09091Z" fill="white"/>
</svg>
