<svg width="80" height="80" viewBox="0 0 80 80" fill="none" xmlns="http://www.w3.org/2000/svg">
<path fill-rule="evenodd" clip-rule="evenodd" d="M40 8C41.4677 8 42.6574 9.18978 42.6574 10.6574V37.3426H69.3426C70.8102 37.3426 72 38.5323 72 40C72 41.4677 70.8102 42.6574 69.3426 42.6574H42.6574V69.3426C42.6574 70.8102 41.4677 72 40 72C38.5323 72 37.3426 70.8102 37.3426 69.3426V42.6574H10.6574C9.18978 42.6574 8 41.4677 8 40C8 38.5323 9.18978 37.3426 10.6574 37.3426H37.3426V10.6574C37.3426 9.18978 38.5323 8 40 8Z" fill="white"/>
</svg>
