<svg width="195" height="256" viewBox="0 0 195 256" fill="none" xmlns="http://www.w3.org/2000/svg">
<path d="M179.824 171.083L124.978 226.029L94.9073 196.059L79.9219 211.044L124.978 256L194.81 186.068L179.824 171.083Z" fill="#DCDCDC"/>
<path d="M19.9805 39.961H39.961V69.9317H139.863V39.961H159.844V146.107H179.824V19.9805H118.085C113.889 8.3918 102.899 0 89.9122 0C76.9249 0 65.9356 8.3918 61.7397 19.9805H0V256H79.9219V236.019H19.9805V39.961ZM89.9122 19.9805C95.4068 19.9805 99.9024 24.4761 99.9024 29.9707C99.9024 35.4654 95.4068 39.961 89.9122 39.961C84.4175 39.961 79.9219 35.4654 79.9219 29.9707C79.9219 24.4761 84.4175 19.9805 89.9122 19.9805Z" fill="#DCDCDC"/>
</svg>
